<svg xmlns="http://www.w3.org/2000/svg" version="1.1" xmlns:xlink="http://www.w3.org/1999/xlink" xmlns:svgjs="http://svgjs.dev/svgjs" width="300" height="250" viewBox="0 0 2000 1500"><rect width="2000" height="1500" fill="#111111"></rect><g transform="matrix(0.75,0,0,0.75,250.2776674065459,12.597570850202374)"><svg viewBox="0 0 251 247" data-background-color="#111111" preserveAspectRatio="xMidYMid meet" height="1968" width="2000" xmlns="http://www.w3.org/2000/svg" xmlns:xlink="http://www.w3.org/1999/xlink"><g id="tight-bounds" transform="matrix(1,0,0,1,-0.04646301269534092,-0.09999999999999432)"><svg viewBox="0 0 251.09291338582676 247.2" height="247.2" width="251.09291338582676"><g><svg viewBox="0 0 251.09291338582676 247.2" height="247.2" width="251.09291338582676"><g><svg viewBox="0 0 251.09291338582676 247.2" height="247.2" width="251.09291338582676"><g id="textblocktransform"><svg viewBox="0 0 251.09291338582676 247.2" height="247.2" width="251.09291338582676" id="textblock"><g><svg viewBox="0 0 251.09291338582676 247.2" height="247.2" width="251.09291338582676"><g transform="matrix(1,0,0,1,0,0)"><svg width="251.09291338582676" viewBox="-0.699999988079071 -26.149999618530273 32.25 31.75" height="247.2" data-palette-color="url(#edc17890-b5fa-46bb-8d68-f47b3dac386d)"></svg></g></svg></g></svg></g></svg></g><g></g></svg></g><defs></defs><mask id="e5402b16-c191-4565-9fae-9301748bb179"><g id="SvgjsG1207"><svg viewBox="0 0 251.09291338582676 247.2" height="247.2" width="251.09291338582676"><g><svg viewBox="0 0 251.09291338582676 247.2" height="247.2" width="251.09291338582676"><g><svg viewBox="0 0 251.09291338582676 247.2" height="247.2" width="251.09291338582676"><g id="SvgjsG1206"><svg viewBox="0 0 251.09291338582676 247.2" height="247.2" width="251.09291338582676" id="SvgjsSvg1205"><g><svg viewBox="0 0 251.09291338582676 247.2" height="247.2" width="251.09291338582676"><g transform="matrix(1,0,0,1,0,0)"><svg width="251.09291338582676" viewBox="-0.699999988079071 -26.149999618530273 32.25 31.75" height="247.2" data-palette-color="url(#edc17890-b5fa-46bb-8d68-f47b3dac386d)"><path d="M21.15-22L21.15-22Q19.15-22.3 16.88-22.3 14.6-22.3 12.45-22L12.45-22Q13.8-19.7 15.65-18.25 17.5-16.8 20.33-15.38 23.15-13.95 24.93-12.75 26.7-11.55 28.85-8.8 31-6.05 31.55-3.05L31.55-3.05Q29.15 0.05 25.2 2.43 21.25 4.8 17.1 5.6L17.1 5.6Q14.3 5.35 10.03 4.03 5.75 2.7 3.6 2.7 1.45 2.7-0.7 4.05L-0.7 4.05Q0.2 1.5 2.25-2.35L2.25-2.35 2.65-2.35Q5.85-2.35 8.68-1.35 11.5-0.35 13.83 0.65 16.15 1.65 17.57 1.65 19 1.65 19.65 1.45L19.65 1.45Q19.65-1.85 17.6-4L17.6-4Q16.5-5.15 15.73-5.78 14.95-6.4 13.35-7.5L13.35-7.5 12.5-8.1Q9.1-10.45 6.9-12.88 4.7-15.3 3.7-18.85L3.7-18.85Q5.3-22.4 6.85-25L6.85-25Q11.6-26.15 16.7-26.15L16.7-26.15 18.9-26.15Q23.2-26.15 28.75-24.95L28.75-24.95Q27.95-21.65 26.8-19L26.8-19Q22.6-18.7 20.3-18.7L20.3-18.7Q20.75-19.85 21.15-22Z" opacity="1" transform="matrix(1,0,0,1,0,0)" fill="white" class="wordmark-text-0" id="SvgjsPath1204"></path></svg></g></svg></g></svg></g></svg></g><g></g></svg></g><defs><mask></mask></defs></svg></g></mask><linearGradient x1="0" x2="1" y1="0.578" y2="0.595" id="edc17890-b5fa-46bb-8d68-f47b3dac386d"><stop stop-color="#dede50" offset="0"></stop><stop stop-color="#559c49" offset="1"></stop></linearGradient><rect width="251.09292602539062" height="247.1999969482422" fill="url(#edc17890-b5fa-46bb-8d68-f47b3dac386d)" mask="url(#e5402b16-c191-4565-9fae-9301748bb179)" data-fill-palette-color="primary"></rect></svg><rect width="251.09291338582676" height="247.2" fill="none" stroke="none" visibility="hidden"></rect></g></svg></g></svg>